<svg width="255" height="255" viewBox="0 0 255 255" fill="none" xmlns="http://www.w3.org/2000/svg">
<rect width="255" height="255" fill="white"/>
<path d="M53.3466 170.312L127.5 41.875L201.653 170.312H53.3466Z" stroke="#F03148" stroke-width="10"/>
<path d="M132.224 81.2809L131.572 131.267H124.009L123.357 81.2809H132.224ZM127.79 151.37C126.182 151.37 124.802 150.77 123.65 149.57C122.498 148.37 121.922 146.932 121.922 145.257C121.922 143.582 122.498 142.144 123.65 140.945C124.802 139.745 126.182 139.145 127.79 139.145C129.399 139.145 130.779 139.745 131.93 140.945C133.082 142.144 133.658 143.582 133.658 145.257C133.658 146.367 133.387 147.385 132.843 148.313C132.322 149.242 131.615 149.989 130.724 150.555C129.855 151.098 128.877 151.37 127.79 151.37Z" fill="#F03148"/>
</svg>
