<svg width="178" height="214" viewBox="0 0 178 214" fill="none" xmlns="http://www.w3.org/2000/svg">
<path d="M114.432 92.182C116.189 90.4246 116.189 87.5754 114.432 85.818C112.675 84.0607 109.825 84.0607 108.068 85.818L114.432 92.182ZM80.0998 120.15L76.9178 123.332C77.7617 124.176 78.9063 124.65 80.0998 124.65C81.2933 124.65 82.4379 124.176 83.2818 123.332L80.0998 120.15ZM69.9324 103.618C68.1751 101.861 65.3259 101.861 63.5685 103.618C61.8111 105.375 61.811 108.225 63.5683 109.982L69.9324 103.618ZM140.917 33.375H145.417C145.417 30.8897 143.402 28.875 140.917 28.875V33.375ZM140.917 155.75V160.25C143.402 160.25 145.417 158.235 145.417 155.75H140.917ZM37.0833 155.75H32.5833C32.5833 158.235 34.598 160.25 37.0833 160.25V155.75ZM37.0833 33.375V28.875C34.598 28.875 32.5833 30.8897 32.5833 33.375H37.0833ZM66.7499 22.25V17.75C64.2646 17.75 62.2499 19.7647 62.2499 22.25H66.7499ZM111.25 22.25H115.75C115.75 19.7647 113.735 17.75 111.25 17.75V22.25ZM111.25 44.5V49C113.735 49 115.75 46.9853 115.75 44.5H111.25ZM66.7499 44.5H62.2499C62.2499 46.9853 64.2646 49 66.7499 49V44.5ZM108.068 85.818L76.9178 116.968L83.2818 123.332L114.432 92.182L108.068 85.818ZM63.5683 109.982L76.9178 123.332L83.2819 116.968L69.9324 103.618L63.5683 109.982ZM136.417 33.375V155.75H145.417V33.375H136.417ZM140.917 151.25H37.0833V160.25H140.917V151.25ZM41.5833 155.75V33.375H32.5833V155.75H41.5833ZM37.0833 37.875H66.7499V28.875H37.0833V37.875ZM140.917 28.875H111.25V37.875H140.917V28.875ZM66.7499 26.75H111.25V17.75H66.7499V26.75ZM111.25 40H66.7499V49H111.25V40ZM71.2499 44.5V33.375H62.2499V44.5H71.2499ZM71.2499 33.375V22.25H62.2499V33.375H71.2499ZM106.75 22.25V33.375H115.75V22.25H106.75ZM106.75 33.375V44.5H115.75V33.375H106.75Z" fill="#0D6EFD"/>
<path d="M31.0243 188.693H25.9872C25.8952 188.041 25.7074 187.463 25.4237 186.957C25.14 186.443 24.7759 186.006 24.3312 185.646C23.8865 185.285 23.3728 185.009 22.7901 184.818C22.2151 184.626 21.5903 184.53 20.9156 184.53C19.6966 184.53 18.6347 184.833 17.73 185.439C16.8253 186.037 16.1238 186.911 15.6255 188.061C15.1271 189.203 14.878 190.591 14.878 192.224C14.878 193.903 15.1271 195.313 15.6255 196.456C16.1315 197.598 16.8368 198.461 17.7415 199.043C18.6462 199.626 19.6927 199.917 20.8811 199.917C21.5481 199.917 22.1653 199.829 22.7326 199.653C23.3077 199.477 23.8175 199.22 24.2622 198.882C24.7069 198.537 25.0749 198.12 25.3662 197.629C25.6652 197.138 25.8722 196.579 25.9872 195.95L31.0243 195.973C30.894 197.054 30.5682 198.097 30.0468 199.101C29.5331 200.098 28.8393 200.991 27.9653 201.78C27.0989 202.562 26.0639 203.183 24.8602 203.643C23.6642 204.096 22.311 204.322 20.8006 204.322C18.6999 204.322 16.8215 203.847 15.1655 202.896C13.5171 201.945 12.2137 200.569 11.2554 198.767C10.3047 196.966 9.82936 194.784 9.82936 192.224C9.82936 189.655 10.3124 187.47 11.2784 185.669C12.2444 183.867 13.5554 182.495 15.2115 181.551C16.8675 180.601 18.7306 180.125 20.8006 180.125C22.1653 180.125 23.4303 180.317 24.5957 180.7C25.7687 181.084 26.8076 181.643 27.7123 182.38C28.6169 183.108 29.353 184.001 29.9203 185.059C30.4953 186.117 30.8633 187.328 31.0243 188.693ZM42.4843 204.345C40.698 204.345 39.1531 203.965 37.8497 203.206C36.554 202.44 35.5535 201.374 34.8482 200.009C34.1428 198.637 33.7901 197.046 33.7901 195.237C33.7901 193.412 34.1428 191.817 34.8482 190.453C35.5535 189.08 36.554 188.015 37.8497 187.256C39.1531 186.489 40.698 186.106 42.4843 186.106C44.2707 186.106 45.8117 186.489 47.1074 187.256C48.4108 188.015 49.4152 189.08 50.1205 190.453C50.8259 191.817 51.1785 193.412 51.1785 195.237C51.1785 197.046 50.8259 198.637 50.1205 200.009C49.4152 201.374 48.4108 202.44 47.1074 203.206C45.8117 203.965 44.2707 204.345 42.4843 204.345ZM42.5073 200.55C43.32 200.55 43.9985 200.32 44.5429 199.86C45.0872 199.392 45.4974 198.756 45.7734 197.951C46.0571 197.146 46.1989 196.23 46.1989 195.202C46.1989 194.175 46.0571 193.259 45.7734 192.454C45.4974 191.649 45.0872 191.012 44.5429 190.545C43.9985 190.077 43.32 189.843 42.5073 189.843C41.687 189.843 40.997 190.077 40.4373 190.545C39.8853 191.012 39.4674 191.649 39.1838 192.454C38.9078 193.259 38.7698 194.175 38.7698 195.202C38.7698 196.23 38.9078 197.146 39.1838 197.951C39.4674 198.756 39.8853 199.392 40.4373 199.86C40.997 200.32 41.687 200.55 42.5073 200.55ZM59.2632 193.788V204H54.3641V186.336H59.0332V189.452H59.2402C59.6312 188.425 60.2867 187.612 61.2068 187.014C62.1268 186.408 63.2423 186.106 64.5533 186.106C65.78 186.106 66.8495 186.374 67.7619 186.911C68.6743 187.447 69.3834 188.214 69.8894 189.211C70.3955 190.2 70.6485 191.38 70.6485 192.753V204H65.7494V193.627C65.757 192.546 65.481 191.702 64.9213 191.097C64.3617 190.483 63.5911 190.177 62.6098 190.177C61.9504 190.177 61.3678 190.319 60.8617 190.602C60.3634 190.886 59.9724 191.3 59.6887 191.844C59.4127 192.381 59.2709 193.029 59.2632 193.788ZM82.4909 204.345C80.6815 204.345 79.1251 203.962 77.8218 203.195C76.5261 202.421 75.5294 201.347 74.8317 199.975C74.1417 198.603 73.7967 197.023 73.7967 195.237C73.7967 193.427 74.1455 191.84 74.8432 190.476C75.5485 189.103 76.5491 188.034 77.8448 187.267C79.1404 186.493 80.6815 186.106 82.4679 186.106C84.0089 186.106 85.3583 186.385 86.5159 186.945C87.6736 187.505 88.5898 188.291 89.2645 189.303C89.9392 190.315 90.311 191.503 90.38 192.868H85.7569C85.6266 191.986 85.2816 191.277 84.7219 190.74C84.1699 190.196 83.4454 189.924 82.5484 189.924C81.7893 189.924 81.1262 190.131 80.5588 190.545C79.9991 190.951 79.5621 191.545 79.2478 192.327C78.9334 193.109 78.7763 194.056 78.7763 195.168C78.7763 196.295 78.9296 197.253 79.2363 198.043C79.5506 198.833 79.9915 199.434 80.5588 199.848C81.1262 200.262 81.7893 200.469 82.5484 200.469C83.108 200.469 83.6102 200.354 84.0549 200.124C84.5072 199.894 84.8791 199.561 85.1704 199.124C85.4694 198.679 85.6649 198.146 85.7569 197.525H90.38C90.3034 198.875 89.9354 200.063 89.276 201.09C88.6243 202.11 87.7235 202.907 86.5734 203.482C85.4234 204.058 84.0626 204.345 82.4909 204.345ZM98.4158 180.447V204H93.5167V180.447H98.4158ZM113.668 196.479V186.336H118.567V204H113.864V200.791H113.68C113.281 201.826 112.618 202.658 111.69 203.287C110.77 203.916 109.647 204.23 108.32 204.23C107.14 204.23 106.101 203.962 105.204 203.425C104.307 202.888 103.605 202.125 103.099 201.136C102.601 200.147 102.348 198.963 102.34 197.583V186.336H107.239V196.709C107.247 197.752 107.527 198.576 108.079 199.181C108.631 199.787 109.371 200.09 110.298 200.09C110.889 200.09 111.441 199.956 111.955 199.687C112.468 199.411 112.882 199.005 113.197 198.468C113.519 197.932 113.676 197.269 113.668 196.479ZM122.486 204V186.336H127.385V204H122.486ZM123.187 184.059L125.625 178.826H130.157L126.649 184.059H123.187ZM137.819 204.288C136.477 204.288 135.262 203.942 134.173 203.252C133.092 202.555 132.233 201.531 131.597 200.182C130.968 198.825 130.654 197.161 130.654 195.191C130.654 193.167 130.98 191.484 131.631 190.142C132.283 188.793 133.149 187.785 134.231 187.118C135.319 186.443 136.511 186.106 137.807 186.106C138.796 186.106 139.62 186.274 140.28 186.612C140.947 186.941 141.483 187.355 141.89 187.854C142.304 188.344 142.618 188.827 142.833 189.303H142.982V180.447H147.87V204H143.04V201.171H142.833C142.603 201.662 142.277 202.148 141.855 202.631C141.441 203.107 140.901 203.502 140.234 203.816C139.574 204.13 138.769 204.288 137.819 204.288ZM139.371 200.389C140.161 200.389 140.828 200.174 141.372 199.745C141.924 199.308 142.346 198.698 142.637 197.916C142.936 197.134 143.086 196.218 143.086 195.168C143.086 194.117 142.94 193.205 142.649 192.431C142.357 191.656 141.936 191.058 141.384 190.637C140.832 190.215 140.161 190.004 139.371 190.004C138.566 190.004 137.888 190.223 137.336 190.66C136.784 191.097 136.366 191.702 136.082 192.477C135.798 193.251 135.657 194.148 135.657 195.168C135.657 196.195 135.798 197.104 136.082 197.893C136.373 198.675 136.791 199.289 137.336 199.733C137.888 200.17 138.566 200.389 139.371 200.389ZM159.879 204.345C158.093 204.345 156.548 203.965 155.244 203.206C153.949 202.44 152.948 201.374 152.243 200.009C151.537 198.637 151.185 197.046 151.185 195.237C151.185 193.412 151.537 191.817 152.243 190.453C152.948 189.08 153.949 188.015 155.244 187.256C156.548 186.489 158.093 186.106 159.879 186.106C161.665 186.106 163.206 186.489 164.502 187.256C165.805 188.015 166.81 189.08 167.515 190.453C168.22 191.817 168.573 193.412 168.573 195.237C168.573 197.046 168.22 198.637 167.515 200.009C166.81 201.374 165.805 202.44 164.502 203.206C163.206 203.965 161.665 204.345 159.879 204.345ZM159.902 200.55C160.715 200.55 161.393 200.32 161.938 199.86C162.482 199.392 162.892 198.756 163.168 197.951C163.452 197.146 163.594 196.23 163.594 195.202C163.594 194.175 163.452 193.259 163.168 192.454C162.892 191.649 162.482 191.012 161.938 190.545C161.393 190.077 160.715 189.843 159.902 189.843C159.082 189.843 158.392 190.077 157.832 190.545C157.28 191.012 156.862 191.649 156.578 192.454C156.302 193.259 156.164 194.175 156.164 195.202C156.164 196.23 156.302 197.146 156.578 197.951C156.862 198.756 157.28 199.392 157.832 199.86C158.392 200.32 159.082 200.55 159.902 200.55Z" fill="#0D6EFD"/>
</svg>
