<svg width="35" height="35" viewBox="0 0 35 35" fill="none" xmlns="http://www.w3.org/2000/svg">
<g filter="url(#filter0_ddddd_775_2010)">
<rect x="5" y="2.5" width="25" height="23" rx="6" fill="#0D6EFD"/>
<path d="M17.2358 19.1392C16.6525 19.1392 16.1271 19.0232 15.6598 18.7912C15.1925 18.5592 14.8179 18.241 14.5362 17.8366C14.2545 17.4323 14.1004 16.9716 14.0739 16.4545H15.267C15.3134 16.9152 15.5223 17.2964 15.8935 17.598C16.268 17.8963 16.7154 18.0455 17.2358 18.0455C17.6534 18.0455 18.0246 17.9477 18.3494 17.7521C18.6776 17.5566 18.9344 17.2881 19.12 16.9467C19.3089 16.602 19.4034 16.2126 19.4034 15.7784C19.4034 15.3343 19.3056 14.9382 19.1101 14.5902C18.9179 14.2389 18.6527 13.9621 18.3146 13.7599C17.9766 13.5578 17.5904 13.455 17.1562 13.4517C16.8447 13.4484 16.5249 13.4964 16.1967 13.5959C15.8686 13.692 15.5985 13.8163 15.3864 13.9688L14.233 13.8295L14.8494 8.81818H20.1392V9.91193H15.8835L15.5256 12.9148H15.5852C15.794 12.7491 16.0559 12.6115 16.3707 12.5021C16.6856 12.3928 17.0137 12.3381 17.3551 12.3381C17.9782 12.3381 18.5334 12.4872 19.0206 12.7855C19.5111 13.0805 19.8956 13.4848 20.174 13.9986C20.4557 14.5123 20.5966 15.099 20.5966 15.7585C20.5966 16.4081 20.4508 16.9882 20.1591 17.4986C19.8707 18.0057 19.473 18.4067 18.9659 18.7017C18.4588 18.9934 17.8821 19.1392 17.2358 19.1392Z" fill="white"/>
</g>
<defs>
<filter id="filter0_ddddd_775_2010" x="0" y="0.5" width="35" height="34" filterUnits="userSpaceOnUse" color-interpolation-filters="sRGB">
<feFlood flood-opacity="0" result="BackgroundImageFix"/>
<feColorMatrix in="SourceAlpha" type="matrix" values="0 0 0 0 0 0 0 0 0 0 0 0 0 0 0 0 0 0 127 0" result="hardAlpha"/>
<feOffset dy="4"/>
<feGaussianBlur stdDeviation="2.5"/>
<feComposite in2="hardAlpha" operator="out"/>
<feColorMatrix type="matrix" values="0 0 0 0 0 0 0 0 0 0 0 0 0 0 0 0 0 0 0.03 0"/>
<feBlend mode="normal" in2="BackgroundImageFix" result="effect1_dropShadow_775_2010"/>
<feColorMatrix in="SourceAlpha" type="matrix" values="0 0 0 0 0 0 0 0 0 0 0 0 0 0 0 0 0 0 127 0" result="hardAlpha"/>
<feOffset dy="2"/>
<feGaussianBlur stdDeviation="2"/>
<feComposite in2="hardAlpha" operator="out"/>
<feColorMatrix type="matrix" values="0 0 0 0 0 0 0 0 0 0 0 0 0 0 0 0 0 0 0.1 0"/>
<feBlend mode="normal" in2="effect1_dropShadow_775_2010" result="effect2_dropShadow_775_2010"/>
<feColorMatrix in="SourceAlpha" type="matrix" values="0 0 0 0 0 0 0 0 0 0 0 0 0 0 0 0 0 0 127 0" result="hardAlpha"/>
<feOffset dy="1"/>
<feGaussianBlur stdDeviation="1.5"/>
<feComposite in2="hardAlpha" operator="out"/>
<feColorMatrix type="matrix" values="0 0 0 0 0 0 0 0 0 0 0 0 0 0 0 0 0 0 0.12 0"/>
<feBlend mode="normal" in2="effect2_dropShadow_775_2010" result="effect3_dropShadow_775_2010"/>
<feColorMatrix in="SourceAlpha" type="matrix" values="0 0 0 0 0 0 0 0 0 0 0 0 0 0 0 0 0 0 127 0" result="hardAlpha"/>
<feOffset dy="1"/>
<feGaussianBlur stdDeviation="0.5"/>
<feComposite in2="hardAlpha" operator="out"/>
<feColorMatrix type="matrix" values="0 0 0 0 0 0 0 0 0 0 0 0 0 0 0 0 0 0 0.14 0"/>
<feBlend mode="normal" in2="effect3_dropShadow_775_2010" result="effect4_dropShadow_775_2010"/>
<feColorMatrix in="SourceAlpha" type="matrix" values="0 0 0 0 0 0 0 0 0 0 0 0 0 0 0 0 0 0 127 0" result="hardAlpha"/>
<feMorphology radius="1" operator="erode" in="SourceAlpha" result="effect5_dropShadow_775_2010"/>
<feOffset dy="2"/>
<feGaussianBlur stdDeviation="0.5"/>
<feComposite in2="hardAlpha" operator="out"/>
<feColorMatrix type="matrix" values="0 0 0 0 0 0 0 0 0 0 0 0 0 0 0 0 0 0 0.2 0"/>
<feBlend mode="normal" in2="effect4_dropShadow_775_2010" result="effect5_dropShadow_775_2010"/>
<feBlend mode="normal" in="SourceGraphic" in2="effect5_dropShadow_775_2010" result="shape"/>
</filter>
</defs>
</svg>
