<svg width="25" height="24" viewBox="0 0 25 24" fill="none" xmlns="http://www.w3.org/2000/svg">
<path d="M21.4994 16.4767L20.4997 16.4518C20.4995 16.4601 20.4994 16.4684 20.4994 16.4767H21.4994ZM21.4994 19.1864H20.4994L20.4994 19.1905L21.4994 19.1864ZM5.30811 3.00009V2.00009L5.30717 2.00009L5.30811 3.00009ZM8.02325 3.00009V4.00014L8.03307 4.00004L8.02325 3.00009ZM9.22131 3.43684L8.57002 4.19566L8.57002 4.19566L9.22131 3.43684ZM8.91019 10.1448L8.20379 9.43704C7.88468 9.75552 7.81814 10.2481 8.04132 10.6399L8.91019 10.1448ZM14.3405 15.5644L13.8469 16.4341C14.2378 16.6559 14.7287 16.5897 15.0469 16.2722L14.3405 15.5644ZM21.0709 15.264L21.8332 14.6168V14.6168L21.0709 15.264ZM10.5428 8.10428L11.5207 8.31325L10.5428 8.10428ZM16.3851 13.935L16.5933 14.9131L16.3851 13.935ZM19.5264 20.9929L19.6162 19.997C19.5861 19.9943 19.5559 19.9929 19.5256 19.9929L19.5264 20.9929ZM3.50706 4.96919L4.50706 4.96997C4.50709 4.93961 4.50573 4.90925 4.50299 4.87901L3.50706 4.96919ZM20.4994 16.4767V19.1864H22.4994V16.4767H20.4994ZM5.30811 4.00009H8.02325V2.00009H5.30811V4.00009ZM8.03307 4.00004C8.23021 3.9981 8.42104 4.06779 8.57002 4.19566L9.87261 2.67802C9.35553 2.23421 8.69474 1.99344 8.01343 2.00014L8.03307 4.00004ZM8.04132 10.6399C9.41891 13.0578 11.4247 15.0595 13.8469 16.4341L14.834 14.6947C12.7246 13.4976 10.9783 11.7546 9.77907 9.64981L8.04132 10.6399ZM20.3086 15.9112C20.4367 16.0622 20.5046 16.2546 20.4997 16.4518L22.4991 16.5015C22.5162 15.8128 22.2791 15.142 21.8332 14.6168L20.3086 15.9112ZM8.57002 4.19566C8.65457 4.26824 8.7975 4.45062 8.9581 4.78633C9.11096 5.10584 9.24861 5.49819 9.35716 5.91573C9.5867 6.79865 9.63259 7.57852 9.56489 7.8953L11.5207 8.31325C11.6874 7.53354 11.5459 6.38601 11.2928 5.4125C11.1601 4.90182 10.9826 4.3837 10.7623 3.92321C10.5497 3.47892 10.2615 3.01177 9.87261 2.67802L8.57002 4.19566ZM16.5933 14.9131C16.9126 14.8451 17.6984 14.8915 18.5856 15.122C19.0054 15.2311 19.3994 15.3694 19.7197 15.523C20.0565 15.6844 20.2376 15.8276 20.3086 15.9112L21.8332 14.6168C21.4995 14.2237 21.0301 13.9332 20.5843 13.7195C20.1221 13.4979 19.6016 13.3196 19.0886 13.1863C18.1103 12.9321 16.9579 12.7907 16.1769 12.9569L16.5933 14.9131ZM15.0469 16.2722C15.2136 16.1058 15.3812 15.9199 15.5239 15.7643C15.675 15.5995 15.8104 15.455 15.9467 15.3266C16.2275 15.0621 16.4295 14.9479 16.5933 14.9131L16.1769 12.9569C15.4828 13.1046 14.9559 13.5123 14.5755 13.8706C14.3813 14.0535 14.2031 14.2455 14.0498 14.4126C13.8881 14.5889 13.7607 14.7302 13.6341 14.8566L15.0469 16.2722ZM9.56489 7.8953C9.53025 8.05741 9.41641 8.25857 9.15128 8.53899C9.02264 8.67505 8.87777 8.81021 8.71267 8.96101C8.55678 9.1034 8.37052 9.27064 8.20379 9.43704L9.6166 10.8526C9.74323 10.7263 9.88485 10.5991 10.0615 10.4377C10.2289 10.2848 10.4212 10.1069 10.6046 9.91303C10.9633 9.53358 11.3724 9.00723 11.5207 8.31325L9.56489 7.8953ZM19.5256 19.9929C11.055 19.9996 4.50043 13.3857 4.50706 4.96997L2.50707 4.9684C2.49957 14.4843 9.94505 22.0004 19.5272 21.9929L19.5256 19.9929ZM20.4994 19.1905C20.5012 19.6394 20.0727 20.0382 19.6162 19.997L19.4366 21.9889C21.0717 22.1364 22.506 20.8052 22.4994 19.1824L20.4994 19.1905ZM4.50299 4.87901C4.46237 4.43043 4.85545 4.00051 5.30905 4.00009L5.30717 2.00009C3.6917 2.00161 2.36338 3.42747 2.51114 5.05936L4.50299 4.87901Z" fill="#0D6EFD"/>
</svg>
