<svg width="32" height="32" viewBox="0 0 32 32" fill="none" xmlns="http://www.w3.org/2000/svg">
<path d="M21.0606 6.39397C21.6464 5.80819 21.6464 4.85844 21.0606 4.27265C20.4748 3.68687 19.525 3.68687 18.9393 4.27265L21.0606 6.39397ZM9.33325 16L8.27259 14.9393C7.99129 15.2206 7.83325 15.6022 7.83325 16C7.83325 16.3978 7.99129 16.7793 8.27259 17.0606L9.33325 16ZM18.9393 27.7273C19.525 28.3131 20.4748 28.3131 21.0606 27.7273C21.6464 27.1415 21.6464 26.1918 21.0606 25.606L18.9393 27.7273ZM18.9393 4.27265L8.27259 14.9393L10.3939 17.0606L21.0606 6.39397L18.9393 4.27265ZM8.27259 17.0606L18.9393 27.7273L21.0606 25.606L10.3939 14.9393L8.27259 17.0606Z" fill="#0D6EFD" fill-opacity="0.3"/>
</svg>
