<svg width="32" height="32" viewBox="0 0 32 32" fill="none" xmlns="http://www.w3.org/2000/svg">
<path d="M10.9394 6.39397C10.3536 5.80819 10.3536 4.85844 10.9394 4.27265C11.5252 3.68687 12.475 3.68687 13.0607 4.27265L10.9394 6.39397ZM22.6667 16L23.7274 14.9393C24.0087 15.2206 24.1667 15.6022 24.1667 16C24.1667 16.3978 24.0087 16.7793 23.7274 17.0606L22.6667 16ZM13.0607 27.7273C12.475 28.3131 11.5252 28.3131 10.9394 27.7273C10.3536 27.1415 10.3536 26.1918 10.9394 25.606L13.0607 27.7273ZM13.0607 4.27265L23.7274 14.9393L21.6061 17.0606L10.9394 6.39397L13.0607 4.27265ZM23.7274 17.0606L13.0607 27.7273L10.9394 25.606L21.6061 14.9393L23.7274 17.0606Z" fill="#0D6EFD"/>
</svg>
